<?xml version="1.0" standalone="no"?><!DOCTYPE svg PUBLIC "-//W3C//DTD SVG 1.1//EN" "http://www.w3.org/Graphics/SVG/1.1/DTD/svg11.dtd"><svg t="1578327093590" class="icon" viewBox="0 0 2194 1024" version="1.1" xmlns="http://www.w3.org/2000/svg" p-id="4347" xmlns:xlink="http://www.w3.org/1999/xlink" width="428.515625" height="200"><defs><style type="text/css"></style></defs><path d="M1992.484571 51.273143c82.797714 0 150.162286 66.706286 150.162286 148.662857v624.274286c0 81.956571-67.364571 148.662857-150.162286 148.662857H201.984c-82.797714 0-150.162286-66.706286-150.162286-148.662857V199.936c0-81.956571 67.364571-148.662857 150.162286-148.662857h1790.500571m0-51.236572H201.984C90.477714 0.036571 0.109714 89.526857 0.109714 199.899429v624.274285c0 110.372571 90.404571 199.862857 201.874286 199.862857h1790.537143c111.506286 0 201.874286-89.490286 201.874286-199.862857V199.936c0-110.409143-90.404571-199.899429-201.910858-199.899429z" fill="#6fa3ef" p-id="4348"></path><path d="M1054.646857 729.709714v34.669715H509.110857v-34.669715h81.773714v-258.230857h143.652572c2.486857-11.739429 4.973714-23.515429 7.424-37.12H515.291429v-35.913143h232.813714c1.865143-11.776 3.730286-24.137143 4.973714-35.291428H545.645714V240.530286h477.44v122.587428h-223.524571c-1.865143 11.154286-4.352 23.515429-6.802286 35.291429h248.283429v35.913143H785.92c-3.108571 13.604571-5.558857 25.380571-8.667429 37.12h192.585143v258.230857h84.809143zM687.433143 273.956571h-97.828572v55.734858h97.828572V273.956571z m-53.248 228.461715v34.706285h290.413714v-34.706285h-290.413714z m290.450286 62.573714h-290.413715v35.291429h290.413715v-35.291429z m-290.450286 99.693714h290.413714v-37.156571h-290.413714v37.156571z m0 65.024h290.413714V691.931429h-290.413714v37.778285z m96-400.018285h101.558857V273.956571h-101.558857v55.734858z m143.652571 0h104.009143V273.956571h-104.009143v55.734858zM1266.139429 304.896v396.946286c0 28.489143-6.802286 42.093714-25.380572 49.554285-17.956571 8.045714-48.310857 9.289143-96.621714 9.289143-2.486857-13.019429-10.496-33.426286-17.334857-45.824 37.12 1.243429 70.582857 1.243429 79.872 0.621715 10.532571-0.621714 14.226286-3.693714 14.226285-13.019429V304.896h-100.315428V261.558857h227.876571v43.337143h-82.322285z m278.674285 248.32c0 77.385143-24.758857 170.898286-178.944 229.12a238.994286 238.994286 0 0 0-27.867428-35.291429c151.113143-48.932571 161.609143-130.669714 161.609143-194.450285v-123.245715h45.202285v123.867429zM1474.194286 348.233143c6.217143-19.2 13.019429-42.093714 17.334857-62.537143h-130.669714V244.845714h322.633142v40.886857h-142.409142c-7.424 21.065143-15.469714 43.958857-22.930286 62.537143h141.165714v289.170286h-44.580571v-246.454857h-185.782857v247.698286h-43.337143V348.233143h88.576z m83.017143 299.739428c43.337143 29.110857 100.315429 72.411429 128.182857 101.558858l-30.976 34.048c-26.624-29.110857-82.980571-74.313143-127.561143-105.289143l30.354286-30.317715z" fill="#6fa3ef" p-id="4349"></path></svg>