<?xml version="1.0" standalone="no"?><!DOCTYPE svg PUBLIC "-//W3C//DTD SVG 1.1//EN" "http://www.w3.org/Graphics/SVG/1.1/DTD/svg11.dtd"><svg t="1557595601745" class="icon" style="" viewBox="0 0 1026 1024" version="1.1" xmlns="http://www.w3.org/2000/svg" p-id="2551" xmlns:xlink="http://www.w3.org/1999/xlink" width="64.125" height="64"><defs><style type="text/css"></style></defs><path d="M329.77320313 691.296875s0 5.2734375-1e-8 0c0 5.2734375-5.2734375 5.2734375-5.2734375 5.2734375h-52.734375s-5.2734375 0-5.2734375-5.2734375l-5.2734375-5.2734375L145.20289063 533.09375v163.4765625l-5.27343751 5.2734375H103.01539063 92.46851563c-5.2734375 0 0-5.2734375-1e-8-5.2734375V264.1484375v-5.2734375l5.2734375-5.2734375H145.20289063s5.2734375 0 5.27343749 5.2734375v268.9453125L261.21851563 406.53125l5.27343749-5.2734375s5.2734375 0 5.2734375-5.2734375h52.734375s5.2734375 0 5.2734375 5.2734375v10.546875s-5.2734375 5.2734375-5.2734375 10.546875l-105.46874999 105.46875 116.015625 152.9296875c5.2734375 5.2734375 5.2734375 5.2734375 5.2734375 10.546875-10.546875-5.2734375-10.546875 0-10.546875 0zM640.90601563 543.640625c0 21.09375-5.2734375 47.4609375-10.54687501 63.28125-5.2734375 21.09375-15.8203125 36.9140625-26.3671875 52.734375-10.546875 15.8203125-26.3671875 26.3671875-47.4609375 31.640625-21.09375 10.546875-42.1875 10.546875-63.28125 10.546875-26.3671875 0-42.1875-5.2734375-63.28125-10.546875s-31.640625-15.8203125-42.1875-31.640625c-15.8203125-10.546875-21.09375-26.3671875-31.640625-42.1875s-5.2734375-42.1875-5.2734375-68.5546875c0-21.09375 5.2734375-47.4609375 10.546875-63.28125 5.2734375-21.09375 15.8203125-36.9140625 26.3671875-52.734375 10.546875-15.8203125 26.3671875-26.3671875 47.4609375-31.640625s42.1875-10.546875 63.28125-10.546875c26.3671875 0 42.1875 5.2734375 63.28125 10.546875 15.8203125 5.2734375 31.640625 15.8203125 42.1875 26.3671875 10.546875 15.8203125 21.09375 31.640625 26.3671875 47.4609375 5.2734375 21.09375 10.546875 42.1875 10.546875 68.5546875z m-58.00781251 5.2734375c0-15.8203125 0-31.640625-5.2734375-42.1875 0-15.8203125-5.2734375-31.640625-10.546875-42.1875s-15.8203125-15.8203125-26.3671875-21.09375c-15.8203125-10.546875-26.3671875-10.546875-47.4609375-10.546875-15.8203125 0-31.640625 5.2734375-42.1875 10.546875-5.2734375 5.2734375-15.8203125 10.546875-26.3671875 21.09375-5.2734375 10.546875-10.546875 21.09375-15.8203125 36.9140625 0 10.546875-5.2734375 26.3671875-5.2734375 42.1875 0 15.8203125 0 31.640625 5.2734375 42.1875 5.2734375 15.8203125 5.2734375 26.3671875 15.8203125 36.9140625s15.8203125 21.09375 26.3671875 26.3671875 26.3671875 10.546875 42.1875 10.546875c15.8203125 0 31.640625-5.2734375 42.1875-10.546875 10.546875-5.2734375 21.09375-15.8203125 26.3671875-21.09375 10.546875-10.546875 15.8203125-21.09375 15.8203125-36.9140625 5.2734375-10.546875 5.2734375-26.3671875 5.2734375-42.1875zM936.21851563 691.296875v5.2734375s-5.2734375 0-5.27343751 5.2734375h-31.640625c-5.2734375 0-5.2734375 0-5.2734375-5.2734375v-31.640625c-10.546875 15.8203125-26.3671875 26.3671875-42.1875 31.640625s-31.640625 10.546875-47.4609375 10.546875c-15.8203125 0-31.640625 0-42.1875-5.2734375l-31.640625-15.8203125c-10.546875-5.2734375-15.8203125-15.8203125-21.09375-26.3671875-5.2734375-10.546875-5.2734375-21.09375-5.2734375-36.9140625 0-15.8203125 5.2734375-31.640625 10.546875-42.1875 0-15.8203125 10.546875-26.3671875 21.09375-36.9140625 10.546875-10.546875 26.3671875-15.8203125 47.4609375-15.8203125 15.8203125-5.2734375 36.9140625-5.2734375 63.28125-5.2734375h36.9140625v-21.09375c0-10.546875 0-21.09375-5.2734375-31.640625 0-10.546875-5.2734375-15.8203125-10.546875-21.09375-5.2734375-5.2734375-10.546875-10.546875-21.09375-10.546875-10.546875-5.2734375-21.09375-5.2734375-31.640625-5.2734375-10.546875 0-26.3671875 0-36.9140625 5.2734375s-21.09375 5.2734375-26.3671875 10.546875c-5.2734375 5.2734375-15.8203125 5.2734375-21.09375 10.546875H725.28101563h-5.27343751l-5.2734375-5.2734375v-5.2734375-10.546875-10.546875c0-5.2734375 0-5.2734375 5.2734375-10.546875 0 0 5.2734375-5.2734375 15.8203125-10.546875 5.2734375-5.2734375 15.8203125-5.2734375 26.3671875-10.546875s21.09375-5.2734375 31.640625-5.2734375 21.09375-5.2734375 31.640625-5.2734375c21.09375 0 36.9140625 0 52.734375 5.2734375 15.8203125 5.2734375 26.3671875 10.546875 36.9140625 21.09375 10.546875 10.546875 15.8203125 21.09375 21.09375 31.640625v247.8515625z m-52.73437501-131.8359375h-47.4609375c-15.8203125 0-26.3671875 0-36.9140625 5.2734375-10.546875 0-21.09375 5.2734375-26.3671875 10.546875l-15.8203125 15.8203125c-5.2734375 5.2734375-5.2734375 15.8203125-5.2734375 21.09375 0 15.8203125 5.2734375 26.3671875 15.8203125 36.9140625s21.09375 15.8203125 42.1875 15.8203125c15.8203125 0 26.3671875-5.2734375 36.9140625-10.546875 10.546875-5.2734375 26.3671875-15.8203125 36.9140625-31.640625V559.4609375z" p-id="2552" fill="#1296db"></path></svg>