<svg class="icon" viewBox="0 0 1042 1024" xmlns="http://www.w3.org/2000/svg" width="65.1" height="64">
    <defs>
        <style/>
    </defs>
    <path transform="matrix(-1,0,0,-1,578.6,1029.9)" d="M 63.6 0 C 81 0 92.5 5.8 109.9 17.4 l 451.3 451.3 c 23.1 23.1 23.1 63.6 0 86.8 l -451.3 451.3 c -23.1 23.1 -63.6 23.1 -86.8 0 C 0 983.7 0 943.2 23.1 920 l 410.8 -410.8 L 17.4 104.1 C -5.7 81 -5.7 40.5 17.4 17.3 C 28.9 5.8 46.3 0 63.6 0 z"/>
    <path transform="matrix(-1,0,0,-1,1518.9,1029.9)" d="M 530.9 0 c 17.4 0 28.9 5.8 46.3 17.4 l 451.3 451.3 c 23.1 23.1 23.1 63.6 0 86.8 l -451.3 451.3 c -23.1 23.1 -63.6 23.1 -86.8 0 c -23.2 -23.3 -23.2 -63.8 0 -86.9 l 410.8 -410.8 l -410.8 -405 c -23.2 -23.1 -23.2 -63.6 0 -86.7 C 501.9 5.8 519.3 0 530.9 0 z"/>
</svg>
