<?xml version="1.0" standalone="no"?><!DOCTYPE svg PUBLIC "-//W3C//DTD SVG 1.1//EN" "http://www.w3.org/Graphics/SVG/1.1/DTD/svg11.dtd"><svg t="1557595455720" class="icon" style="" viewBox="0 0 1024 1024" version="1.1" xmlns="http://www.w3.org/2000/svg" p-id="2125" xmlns:xlink="http://www.w3.org/1999/xlink" width="64" height="64"><defs><style type="text/css"></style></defs><path d="M1015.63212003 1094.54222222H8.36787997c-43.63264455 0-78.91010219-35.27745763-78.91010219-78.91010219V8.36787997C-70.54222222-35.26476459-35.26476459-70.54222222 8.36787997-70.54222222h1007.26424006c43.63264455 0 78.91010219 35.27745763 78.91010219 78.91010219v1007.26424006c0 43.63264455-35.27745763 78.91010219-78.91010219 78.91010219z" fill="#00A6E0" p-id="2126"></path><path d="M505.064542 820.831873c0-8.159363-0.407968-16.726693 0-24.886056 0-3.263745-0.815936-4.079681-4.079681-4.079682H406.336255c-3.671713 0-5.303586-0.407968-4.895618-4.895617 0.407968-8.567331 0.407968-17.134661 0-25.701992 0-3.671713 1.223904-4.487649 4.48765-4.48765h88.529084c10.607171 0 10.607171 0 10.607171-10.607171v-88.937052c0-3.263745-0.815936-4.079681-4.079681-3.671713h-51.811953c-2.855777 0-3.671713 0.815936-4.079681 3.671713-0.815936 6.52749-2.039841 13.05498-3.263745 19.582471-2.855777 14.278884-13.870916 23.254183-28.149801 23.254183h-8.975299c-2.855777 0-3.263745-1.223904-2.855776-3.671713 2.447809-13.870916 4.895618-27.333865 7.343426-41.204781l9.791235-57.523506c0.407968-2.855777 1.631873-4.079681 4.487649-4.079682 9.791235 0.407968 19.58247 0 29.373706 0 2.447809 0 3.263745 0.407968 2.855776 3.263746-1.223904 6.119522-2.039841 12.647012-3.263745 18.766533-0.407968 2.447809-0.407968 3.263745 2.447809 3.263745h47.324303c2.447809 0 2.855777-0.815936 2.855777-2.855776v-27.741833c0-2.855777 0.815936-3.671713 3.671713-3.671713h27.741833c2.855777 0 3.671713 0.815936 3.671713 3.671713v26.925896c0 3.263745 0.815936 4.079681 4.079681 4.079682h68.946614c3.263745 0 4.487649 0.815936 4.487649 4.079681-0.407968 8.567331-0.407968 17.542629 0 26.10996 0 3.263745-1.223904 3.671713-4.079681 3.671713h-69.354582c-1.223904 0-2.855777-0.407968-4.079681 0.815936-0.815936 1.631873-0.407968 3.671713-0.407968 5.303586s0.815936 3.263745-1.631873 4.079681c-0.815936 0-0.407968 0.815936-0.407968 1.223905 1.223904 15.502789 0.407968 31.413546 0.407968 46.916334V749.845418c0.815936 7.751394 2.039841 8.975299 10.199203 8.975299h65.274901-69.354582c1.223904-2.447809 2.447809-2.039841 3.263745-2.039841H619.703586c6.119522 0.407968 6.119522 0.407968 6.119522 6.119522v23.254184c0 2.855777-1.223904 4.487649-4.079682 4.487649H546.677291c-6.935458 0-6.935458-0.407968-6.935458 6.52749 0 8.159363 0.407968 16.318725-0.407968 24.07012 0 2.447809-0.815936 3.263745-3.263745 3.263745-8.159363 0-16.318725-0.407968-24.478088 0-3.671713 0.407968-5.711554-0.815936-6.52749-3.671713zM681.306773 753.109163c5.711554-14.686853 11.423108-28.965737 17.134661-43.652589 1.631873-4.079681 1.631873-4.079681-2.855777-4.079682h-35.085259v-31.413545c0-2.447809 0.407968-3.671713 3.263745-3.263745h208.879682c3.671713 0 4.895618 0.815936 4.487649 4.487649-0.407968 8.567331-0.407968 17.134661 0 25.701992 0 4.079681-1.223904 4.487649-4.895617 4.487649h-127.694024c-4.895618 0-7.751394 0.815936-8.975299 6.119522 0 0.815936-0.815936 2.039841-1.223905 2.855777-3.263745 6.119522-5.303586 13.05498-8.159362 19.58247-1.631873 4.079681-3.671713 7.751394-4.487649 11.831076-0.407968 2.039841-1.223904 4.079681-2.447809 6.119522-3.263745 5.303586-4.895618 11.423108-7.343427 16.726693-1.223904 2.855777-2.447809 6.119522-3.671713 8.975299-2.039841 4.895618-1.631873 5.303586 3.671713 5.303586h103.215937c5.711554 0 11.831076-0.407968 17.542629 0.407968 2.447809 0.407968 3.263745-0.815936 2.447809-3.671713l-7.343426-19.58247c-2.447809-6.52749-4.487649-12.647012-6.935458-18.766534 0.815936-0.815936 1.631873-0.815936 2.03984-0.815937h32.229482c1.631873 0 2.855777 0 3.671713 2.039841 5.303586 14.278884 11.015139 28.965737 15.502789 43.65259 2.039841 7.343426 2.447809 14.686853-2.855777 21.214342-4.895618 5.711554-10.607171 9.383267-18.358565 9.383267h-177.874104c-4.895618 0-5.303586-0.407968-5.711554-5.303585 0-8.159363 0.407968-16.318725-0.407968-24.478088 0-1.223904 0-2.447809 0.407968-3.263745 4.487649-8.567331 6.52749-17.542629 10.607172-26.10996 0.815936-1.631873 0.815936-3.263745 1.223904-4.48765zM436.117928 480.994422c-2.855777-6.119522-6.52749-11.423108-7.751394-17.950597-2.447809-13.462948-3.671713-26.925896-5.711554-40.388845-1.631873-11.831076-2.855777-24.07012-4.895617-35.901195-1.223904-6.935458-1.631873-14.278884-2.447809-21.214343-1.631873-11.831076-2.447809-24.07012-4.48765-35.901195-0.407968-1.631873 0.407968-3.263745-0.815936-4.895618-5.711554-2.855777-11.015139-5.711554-16.726693-8.975298-13.870916-8.567331-27.333865-18.358566-39.980877-28.965737-3.671713-3.671713-7.343426-7.343426-11.015139-10.607172-2.039841-4.079681-6.119522-5.711554-8.159363-9.383267-8.975299-10.199203-17.542629-20.806375-24.886055-32.229482-6.52749-10.199203-12.647012-20.398406-17.54263-31.413546L285.577689 189.705179c-2.039841-4.487649-0.815936-6.119522 4.079682-6.119522 5.711554 0 10.607171 2.447809 13.870916 6.935459 6.52749 8.567331 14.278884 15.910757 22.438247 22.846215 8.567331 8.159363 17.542629 15.910757 27.333864 22.438247 2.855777 2.039841 5.303586 4.487649 8.567331 6.119522 6.935458 4.487649 13.870916 9.383267 21.622311 13.05498 5.711554 2.855777 11.015139 5.711554 16.726693 8.975298 0.815936 0.407968 1.631873 0.407968 2.447809 0 1.223904-0.407968 0.815936-1.631873 0.407968-2.447808-2.039841-13.05498-3.263745-26.10996-4.895618-38.756972-0.815936-4.895618 0.815936-6.52749 6.119522-5.303586 4.487649 0.815936 8.975299 2.447809 11.831076 6.119522v0.815936s0-0.407968 0.407968-0.407968c0.815936 0 1.223904 0 1.631873 0.407968 7.343426 12.647012 8.975299 26.925896 13.05498 40.388845 1.223904 3.263745 2.447809 6.935458 2.855777 10.607171 0 1.223904 0.815936 2.447809 2.447808 2.855777 13.870916 4.079681 27.741833 6.935458 41.612749 9.383267 19.990438 3.671713 39.572908 2.855777 59.563347 2.855777 8.159363 0 16.726693-0.815936 24.886056-2.039841 17.542629-2.447809 35.493227-6.119522 52.21992-12.239044 11.831076-4.079681 24.07012-8.567331 35.085259-15.09482 0.815936-0.407968 1.631873-0.815936 2.447809-0.815937 0.815936 0 1.631873 0.407968 1.631872-0.815936 0-0.407968 0.407968-0.815936 0.815937-1.223904 10.199203-4.079681 18.766534-10.199203 28.1498-15.910757 7.343426-4.487649 14.278884-9.791235 21.214343-15.094821 8.567331-6.52749 16.318725-13.870916 24.07012-21.622311 1.223904-1.631873 2.447809-4.079681 5.303585-2.855777h0.407968c1.223904-6.119522 7.343426-8.975299 10.199204-13.870916 0.815936-1.631873 2.855777-3.263745 5.303585-2.855777 0.815936 0 1.631873 0 2.039841-0.815936 2.039841-2.447809 4.895618-2.039841 7.751394-1.631873 2.447809 0 3.263745 0.815936 2.039841 3.263745-2.855777 6.935458-4.895618 14.278884-9.383267 20.398407-0.815936 1.223904-0.407968 2.447809-0.815936 3.671713-3.671713 4.895618-5.711554 10.607171-9.383267 15.910757-4.487649 6.52749-8.159363 13.462948-13.05498 19.174502-0.407968 1.223904-1.223904 2.039841-1.631873 3.263745-0.407968 0.815936-1.223904 1.223904-2.03984 2.039841-2.039841 2.039841-3.263745 4.895618-5.711554 6.52749-3.263745 1.631873-3.263745 4.895618-5.711554 7.343426-2.447809 2.447809-5.303586 4.895618-7.343426 7.343426-2.039841 2.855777-4.895618 4.895618-7.343427 7.343426-2.447809 2.447809-5.303586 4.487649-7.343426 7.343427-2.039841 2.447809-4.079681 4.079681-6.935458 5.303585-4.079681 2.855777-7.751394 6.119522-12.239044 8.567331-1.631873 0.815936-3.263745 2.855777-4.895617 4.079681-9.791235 6.52749-19.58247 12.647012-30.189642 17.950598-4.079681 2.039841-8.567331 4.079681-12.647012 6.119522-9.383267 3.263745-18.358566 6.935458-27.741832 9.791235-7.343426 2.039841-14.686853 3.263745-21.622311 6.119522-8.567331 2.447809-17.542629 3.671713-26.10996 4.487649-22.846215 2.039841-45.69243 1.631873-68.130678-2.03984-8.159363-1.223904-15.910757-2.855777-23.662151-4.895618-1.223904-0.407968-2.855777-1.223904-3.671713 0-0.815936 0.815936 0 2.039841 0.407968 3.263745 5.711554 21.214343 11.831076 42.020717 17.542629 63.23506 0 0.815936 0 1.223904 0.407969 2.039841 0.815936 7.751394 4.079681 14.686853 5.711553 22.030278 1.223904 5.303586 2.447809 10.199203 5.303586 15.094821 3.671713 6.52749 10.199203 10.199203 16.726693 10.199203 19.990438 0.407968 39.572908 0.815936 59.563347-0.407968 3.671713 0 6.935458-1.631873 9.791235-4.487649 3.671713-4.487649 6.935458-8.567331 8.159362-14.278885 3.263745-11.831076 6.52749-23.662151 9.791235-35.085259 1.223904-4.895618 3.263745-9.383267 4.895618-13.870916 1.631873-4.895618 5.303586-8.567331 8.159363-13.05498 0.815936-0.815936 1.631873-1.631873 2.855776-2.039841 4.079681-3.671713 7.751394-7.751394 13.462949-9.383267 7.343426-2.855777 14.686853-4.895618 22.846215-4.895617 3.263745 0 4.487649 0.407968 3.671713 4.079681l-8.567331 69.76255c-1.223904 11.423108-2.039841 23.254183-6.52749 34.269323-9.383267 22.846215-26.517928 34.677291-50.996016 34.67729h-95.87251c-17.134661 0-31.413546-5.711554-42.020717-19.174502-0.815936-1.631873-2.039841-2.447809-2.855777-3.671713zM192.152988 815.936255c-1.631873-0.815936-3.263745-1.631873-4.487649-2.447809-7.343426-5.711554-9.791235-13.462948-9.791235-22.846215 0.407968-44.060558 0-88.121116 0-132.589641 0-2.855777-0.407968-3.671713-3.671714-3.671714H146.868526c-2.447809 0-3.671713-0.407968-3.671713-3.263745v-28.1498c0-2.855777 0.815936-3.671713 3.671713-3.671713h27.333864c2.855777 0 3.671713-0.815936 3.671714-3.671714v-26.517928c0-2.855777 0.815936-4.079681 3.671713-3.671713h27.333864c2.855777 0 3.671713 0.815936 3.671713 3.671713v26.10996c0 3.263745 0.815936 4.079681 4.079682 4.079682h146.868526c1.223904 0 2.447809 0 4.079681 0.407968 0 10.199203-0.407968 20.398406 0 30.597609 0 3.671713-1.223904 4.487649-4.48765 4.48765H220.710757c-2.855777 0-5.711554-0.815936-8.159363 0.815936-1.223904 1.631873-0.815936 3.671713-0.815936 5.711554v114.639043c0 7.751394 1.223904 8.975299 8.975299 8.975299h91.384861-62.827092c-10.199203 0-20.806375 0-31.005578-0.407968 1.223904-1.631873 2.447809-1.223904 3.671713-1.223904h95.056574c2.855777 0 5.711554 1.223904 8.159363-0.815936s0.407968-4.895618 0.407968-7.343427c0.407968-10.199203 0-20.806375 0-31.005577 0-2.447809 0.407968-3.263745 3.263745-3.263745h27.333864c2.447809 0 3.263745 0.815936 3.263745 3.263745-0.407968 17.542629 0.407968 34.677291-0.407968 52.21992 0 3.263745-0.815936 6.119522-4.079681 8.159362-0.407968 0-0.815936 0.407968-0.407968 0.815937 0.407968-0.407968 0.815936-0.407968 0.815936 0 0.815936 0.407968 0.815936 0.815936 0.815936 1.631872-0.407968 1.223904-1.223904 2.039841-1.631872 3.263745l-2.855777 2.855777c-1.631873 2.039841-3.671713 3.671713-6.119522 4.079681-2.039841 2.039841-4.895618 2.039841-7.751394 2.039841H200.312351c-3.263745-1.223904-6.119522-0.815936-8.159363-3.263745zM768.203984 627.45498h-94.240637c-3.263745 0-4.895618-0.815936-4.895618-4.487649 0.407968-8.567331 0.407968-17.134661 0-25.701992 0-2.855777 0.815936-4.079681 4.079681-4.079682h190.521116c2.447809 0 3.671713 0.815936 3.671713 3.671714 0 8.975299-0.407968 17.950598 0 26.925896 0 3.263745-1.223904 3.671713-4.079681 3.671713h-95.056574z" fill="#FFFFFF" p-id="2127"></path></svg>