<?xml version="1.0" standalone="no"?><!DOCTYPE svg PUBLIC "-//W3C//DTD SVG 1.1//EN" "http://www.w3.org/Graphics/SVG/1.1/DTD/svg11.dtd"><svg t="1556130723249" class="icon" style="" viewBox="0 0 1024 1024" version="1.1" xmlns="http://www.w3.org/2000/svg" p-id="12053" xmlns:xlink="http://www.w3.org/1999/xlink" width="16" height="16"><defs><style type="text/css"></style></defs><path d="M732.688 62.03c-20.93 0-37.671 8.362-41.86 29.246-4.19 16.71 12.567 37.608 29.308 41.782 66.979 12.536 200.952 33.435 234.434 225.668 4.189 20.899 20.93 41.782 41.86 33.435 16.74-4.174 33.497-12.536 25.119-58.508C988.067 145.61 837.353 70.393 732.688 62.03m62.805 284.175c-8.378-33.435-41.86-71.044-79.546-75.217-12.568 0-20.93 4.173-25.12 16.71-4.188 12.536 4.19 25.072 16.741 29.246 25.12 4.189 37.687 25.072 41.86 41.797 0 0 4.19 12.537 16.741 16.71 12.567 4.174 33.513-4.173 29.324-29.246" fill="#333333" p-id="12054"></path><path d="M900.143 362.915c-12.568-87.754-75.358-158.798-167.455-175.507-29.309-4.19-41.86 16.71-41.86 33.435 0 16.71 12.567 29.246 33.497 33.435 58.616 16.71 96.287 41.782 108.854 108.652 4.19 20.9 20.93 33.436 33.497 33.436 20.915-0.016 33.467-12.552 33.467-33.451z m0 0" fill="#333333" p-id="12055"></path><path d="M703.38 505.003h-12.568s0-4.19 4.19-12.537c12.551-25.072 29.307-79.406-8.379-108.652-20.93-20.9-121.406-33.435-221.882 33.435-4.19 4.19-12.567 12.536-16.741 8.363-4.19 0-4.19-8.363-4.19-16.71-4.188-54.319 37.687-192.233-71.167-179.697C255.44 250.09 96.349 429.785 54.489 517.54c-163.266 309.232 71.168 434.61 297.24 442.957 247 8.363 494.002-129.551 527.484-313.421 20.93-121.173-125.596-146.261-175.834-142.072m29.309 192.232c-12.568 121.19-188.385 217.306-380.96 213.132-175.833-4.19-297.239-96.132-276.309-200.595 20.93-104.48 163.266-192.233 334.91-200.58 184.212-12.552 334.926 71.028 322.359 188.043" fill="#333333" p-id="12056"></path><path d="M381.037 605.293c-83.736 4.173-159.093 71.043-171.645 146.26-8.362 79.407 46.05 146.262 133.974 146.262S515.01 830.96 523.388 743.191c8.363-79.39-54.443-142.072-142.351-137.898z m-66.995 229.841c-29.308 0-46.049-20.899-41.86-50.145 0-29.246 25.12-54.318 54.427-54.318s46.05 20.898 46.05 50.145c-4.19 29.246-33.498 54.318-58.617 54.318z m66.995-83.58c-8.379 0-16.741-8.363-12.568-16.71 0-8.363 8.379-16.71 16.741-16.71 8.363 0 16.741 8.363 12.567 16.71 0 12.536-8.378 16.71-16.74 16.71z m0 0" fill="#333333" p-id="12057"></path></svg>